<?xml version="1.0" encoding="UTF-8" standalone="no"?>
<svg
   width="30"
   height="30"
   viewBox="0 0 30 30"
   fill="none"
   version="1.1"
   id="svg10"
   sodipodi:docname="icon.svg"
   inkscape:version="1.2.2 (732a01da63, 2022-12-09)"
   xmlns:inkscape="http://www.inkscape.org/namespaces/inkscape"
   xmlns:sodipodi="http://sodipodi.sourceforge.net/DTD/sodipodi-0.dtd"
   xmlns="http://www.w3.org/2000/svg"
   xmlns:svg="http://www.w3.org/2000/svg">
  <defs
     id="defs14" />
  <sodipodi:namedview
     id="namedview12"
     pagecolor="#ffffff"
     bordercolor="#000000"
     borderopacity="0.25"
     inkscape:showpageshadow="2"
     inkscape:pageopacity="0.0"
     inkscape:pagecheckerboard="0"
     inkscape:deskcolor="#d1d1d1"
     showgrid="false"
     inkscape:zoom="9.7698587"
     inkscape:cx="6.9601825"
     inkscape:cy="27.84073"
     inkscape:window-width="1920"
     inkscape:window-height="1009"
     inkscape:window-x="-8"
     inkscape:window-y="-8"
     inkscape:window-maximized="1"
     inkscape:current-layer="svg10" />
  <g
     id="g1160"
     transform="matrix(1.0167717,-0.09661073,0.09661073,1.0167717,1.7582598,0.5522097)">
    <path
       d="M 19.973062,5.6039487 C 19.470363,5.9999386 18.74181,5.9134294 18.345819,5.4107313 17.949831,4.9080332 18.03634,4.1794802 18.539037,3.7834901 19.041736,3.3875 19.770289,3.4740094 20.166279,3.9767074 c 0.395989,0.5026981 0.30948,1.2312512 -0.193217,1.6272413 z M 14.760842,0.85959154 19.642496,1.4392478 22.51064,5.0802055 21.930983,9.9618597 9.187841,20 2.0178304,10.897584 14.760973,0.85944433 Z"
       fill-rule="evenodd"
       id="path245"
       style="fill:#ec8b00;fill-opacity:1;stroke-width:0.231744" />
    <path
       id="path1117"
       style="display:inline;fill:#ffffff;fill-opacity:1;fill-rule:evenodd;stroke:none;stroke-width:0.00630364;stroke-linecap:butt;stroke-linejoin:miter;stroke-miterlimit:4;stroke-dasharray:none;stroke-opacity:1"
       d="m 7.4428077,14.143839 0.4140788,-0.333802 c 0.018987,0.01267 0.060029,0.02752 0.067762,0.02128 l 0.1719851,-0.138643 0.3399842,0.421747 0.3317643,-0.191538 0.1006706,0.12488 0.4849924,-0.351207 1.8185399,1.814976 -0.11464,0.09242 c -0.02211,0.01782 -0.01654,0.128504 -3.79e-4,0.14855 l 0.01374,0.01704 c 0.0054,0.0067 0.03043,0.0049 0.0345,0.0016 l 1.678553,-1.353138 c -0.0104,-0.0086 -0.02116,-0.01504 -0.03192,-0.01899 -0.07486,-0.0275 -0.174765,-0.0202 -0.201064,0.0011 l -0.360962,0.290984 0.02373,0.02943 -0.120837,0.09741 0.707614,-3.586443 c 0.0084,-0.04717 0.124214,-0.172248 0.20051,-0.233203 l 0.241742,0.490115 0.316036,-0.254767 0.216375,-1.145685 0.06507,-0.05245 0.02042,-0.1902682 c 0,0 0.302944,-0.4443019 0.530582,-0.7242086 0.227637,-0.2799067 0.737905,-0.8038038 1.008935,-1.1200492 0.27103,-0.3162455 0.801848,-0.9837812 0.79987,-0.986235 -0.002,-0.00245 -0.766963,0.3746011 -1.133525,0.5723398 -0.366562,0.1977386 -0.986819,0.5851951 -1.308661,0.7482421 -0.321842,0.1630469 -0.820317,0.3647956 -0.820317,0.3647956 l -0.190267,-0.020423 -0.06507,0.052452 -1.165507,-0.031703 -0.316036,0.254767 0.427645,0.3402527 c -0.07576,0.061622 -0.222566,0.1482425 -0.270445,0.1464491 l -3.6549192,-0.069659 0.1208371,-0.097411 0.023728,0.029435 0.3609626,-0.290984 c 0.026347,-0.021198 0.054694,-0.1172719 0.043708,-0.1962588 -0.00158,-0.011354 -0.00558,-0.023241 -0.011785,-0.035229 l -1.678553,1.3531375 c -0.00407,0.0033 -0.01121,0.02731 -0.00578,0.03405 l 0.013737,0.01704 c 0.01616,0.02005 0.12314,0.04898 0.145246,0.03116 l 0.1146403,-0.09241 1.3876794,2.162307 -0.4461368,0.399407 0.1006705,0.124881 -0.2575859,0.283556 0.3399842,0.421747 -0.1719851,0.138643 c -0.00773,0.0062 -0.00193,0.04949 0.00642,0.07074 L 7.3750609,14.0598 Z"
       sodipodi:nodetypes="ccccccccccccccscccccccccccsscsscccccccccccsccccccccccccccc" />
  </g>
</svg>
