<?xml version="1.0" encoding="UTF-8" standalone="no"?>
<!-- Created with Inkscape (http://www.inkscape.org/) -->

<svg
   width="128"
   height="128"
   viewBox="0 0 33.866666 33.866666"
   version="1.1"
   id="svg1"
   inkscape:version="1.3.2 (091e20e, 2023-11-25, custom)"
   sodipodi:docname="icon.svg"
   inkscape:export-filename="icon-128x128.png"
   inkscape:export-xdpi="96"
   inkscape:export-ydpi="96"
   xmlns:inkscape="http://www.inkscape.org/namespaces/inkscape"
   xmlns:sodipodi="http://sodipodi.sourceforge.net/DTD/sodipodi-0.dtd"
   xmlns="http://www.w3.org/2000/svg"
   xmlns:svg="http://www.w3.org/2000/svg">
  <sodipodi:namedview
     id="namedview1"
     pagecolor="#ffffff"
     bordercolor="#000000"
     borderopacity="0.25"
     inkscape:showpageshadow="2"
     inkscape:pageopacity="0.0"
     inkscape:pagecheckerboard="0"
     inkscape:deskcolor="#d1d1d1"
     inkscape:document-units="mm"
     inkscape:zoom="4.0970529"
     inkscape:cx="72.73521"
     inkscape:cy="78.715118"
     inkscape:window-width="1920"
     inkscape:window-height="1009"
     inkscape:window-x="-8"
     inkscape:window-y="-8"
     inkscape:window-maximized="1"
     inkscape:current-layer="layer1" />
  <defs
     id="defs1" />
  <g
     inkscape:label="Calque 1"
     inkscape:groupmode="layer"
     id="layer1">
    <rect
       style="fill:#f2f2f2;stroke-width:1.39452"
       id="rect1"
       width="33.866665"
       height="33.866665"
       x="8.9009603e-07"
       y="8.9009603e-07" />
    <g
       id="g1">
      <path
         d="M 11.534781,27.560191 H 9.965923 q -1.8721609,0 -3.043576,-1.045903 Q 5.7613976,25.478843 5.7613976,23.51255 v -1.558393 q 0,-1.76758 -0.8680956,-2.761188 -0.8680956,-1.004065 -2.65659,-1.004065 H 1.7032991 V 16.5573 H 2.236712 q 1.7884944,0 2.65659,-0.993607 0.8680956,-1.004065 0.8680956,-2.77164 V 11.23366 q 0,-1.9662959 1.1609494,-3.0017388 1.1714151,-1.0459019 3.043576,-1.0459019 h 1.568858 v 1.4433442 h -1.192329 q -1.4224318,0 -2.0708913,0.6589185 Q 7.633567,9.9472005 7.633567,11.411463 v 1.830328 q 0,1.453804 -0.8053436,2.44741 -0.8053523,0.983149 -2.2382324,1.558398 v 0.251016 q 1.4328801,0.575242 2.2382324,1.56885 0.8053436,0.983151 0.8053436,2.436954 v 1.830324 q 0,1.46426 0.6379937,2.123185 0.6484595,0.658917 2.0708913,0.658917 h 1.192329 z m 21.273644,-9.371287 h -0.533413 q -1.788495,0 -2.65659,1.004065 -0.868096,0.993608 -0.868096,2.761188 v 1.558393 q 0,1.966293 -1.171415,3.001738 -1.160949,1.045903 -3.03311,1.045903 h -1.568859 v -1.443346 h 1.19233 q 1.422423,0 2.060425,-0.658917 0.64846,-0.658925 0.64846,-2.123185 v -1.830324 q 0,-1.453803 0.805343,-2.436954 0.805344,-0.993608 2.238233,-1.56885 V 17.247599 Q 28.488844,16.67235 27.6835,15.689201 26.878157,14.695595 26.878157,13.241791 v -1.830328 q 0,-1.4642625 -0.64846,-2.123181 -0.638002,-0.6589185 -2.060425,-0.6589185 h -1.19233 V 7.1860193 h 1.568859 q 1.872161,0 3.03311,1.0459019 1.171415,1.0354429 1.171415,3.0017388 v 1.558393 q 0,1.767575 0.868096,2.77164 0.868095,0.993607 2.65659,0.993607 h 0.533413 z"
         id="text1"
         style="font-size:24.9694px;-inkscape-font-specification:'sans-serif, Normal';fill:#4d4d4d;stroke-width:0.251015"
         aria-label="{ }" />
      <path
         d="M 10.88971,26.915146 H 9.3208606 q -1.8721609,0 -3.0435761,-1.045903 -1.1609493,-1.035445 -1.1609493,-3.001738 v -1.558393 q 0,-1.76758 -0.8680956,-2.761188 Q 3.3801354,17.543859 1.591641,17.543859 H 1.0582367 V 15.912255 H 1.591641 q 1.7884944,0 2.6565986,-0.993607 0.8680956,-1.004066 0.8680956,-2.77164 v -1.558394 q 0,-1.9662952 1.1609493,-3.0017381 Q 7.4486997,6.540974 9.3208606,6.540974 H 10.88971 V 7.9843183 H 9.6973807 q -1.4224229,0 -2.0708824,0.6589184 Q 6.988496,9.3021552 6.988496,10.766417 v 1.830329 q 0,1.453803 -0.8053437,2.44741 -0.8053436,0.983148 -2.2382237,1.558394 v 0.251017 q 1.4328801,0.575245 2.2382237,1.568853 0.8053437,0.983151 0.8053437,2.436954 v 1.830323 q 0,1.464261 0.6380023,2.123186 Q 8.2749578,25.4718 9.6973807,25.4718 H 10.88971 Z m 21.273644,-9.371287 h -0.533405 q -1.788494,0 -2.65659,1.004065 -0.868104,0.993608 -0.868104,2.761188 v 1.558393 q 0,1.966293 -1.171406,3.001738 -1.16095,1.045903 -3.033119,1.045903 H 22.33188 V 25.4718 h 1.19233 q 1.422423,0 2.060425,-0.658917 0.648459,-0.658925 0.648459,-2.123186 v -1.830323 q 0,-1.453803 0.805344,-2.436954 0.805344,-0.993608 2.238232,-1.568853 V 16.60255 q -1.432888,-0.575246 -2.238232,-1.558394 -0.805344,-0.993607 -0.805344,-2.44741 v -1.830329 q 0,-1.4642618 -0.648459,-2.1231803 Q 24.946633,7.9843183 23.52421,7.9843183 H 22.33188 V 6.540974 h 1.56885 q 1.872169,0 3.033119,1.0459019 1.171406,1.0354429 1.171406,3.0017381 v 1.558394 q 0,1.767574 0.868104,2.77164 0.868096,0.993607 2.65659,0.993607 h 0.533405 z"
         id="text2"
         style="font-size:24.9694px;-inkscape-font-specification:'sans-serif, Normal';fill:#ec8b00;stroke-width:0.251015"
         aria-label="{ }" />
      <path
         id="path2"
         style="display:inline;fill:#4d4d4d;fill-opacity:1;fill-rule:evenodd;stroke:none;stroke-width:0.0112964;stroke-linecap:butt;stroke-linejoin:miter;stroke-miterlimit:4;stroke-dasharray:none;stroke-opacity:1"
         d="m 17.023152,27.188037 v -0.953134 c 0.03912,-0.01235 0.105808,-0.05284 0.105808,-0.0706 V 25.76842 h 0.970772 l 0.105816,-0.678287 h 0.287458 l 0.05533,-1.071647 4.577503,-0.495882 v 0.263884 c 0,0.05087 0.160779,0.167607 0.206828,0.167607 h 0.03929 c 0.01647,0 0.04101,-0.03697 0.04101,-0.04632 V 20.04404 c -0.02368,0.0051 -0.04487,0.01278 -0.06237,0.02316 -0.12269,0.07352 -0.224714,0.221112 -0.224654,0.281711 v 0.830873 h 0.06777 v 0.27815 l -4.207862,-5.02089 c -0.05645,-0.06479 -0.100463,-0.367029 -0.09985,-0.542027 l 0.955683,0.213958 V 15.381514 L 18.486623,13.79109 v -0.149783 l -0.24248,-0.242486 c 0,0 -0.279146,-0.922362 -0.413657,-1.554766 C 17.695855,11.211657 17.53897,9.9105221 17.402563,9.1767105 17.266285,8.4428989 16.931851,6.9515424 16.926206,6.9515424 c -0.006,0 -0.339975,1.4913565 -0.476357,2.2251681 -0.136278,0.7338116 -0.293428,2.0349465 -0.427914,2.6673445 -0.134631,0.632404 -0.413657,1.554766 -0.413657,1.554766 l -0.242506,0.242486 v 0.149783 l -1.355039,1.590424 v 0.727459 l 0.955674,-0.213958 c 4.55e-4,0.175001 -0.04367,0.477243 -0.09984,0.542027 l -4.207862,5.02089 v -0.27815 h 0.06777 V 20.3489 c 6e-5,-0.06056 -0.10211,-0.208201 -0.224654,-0.28171 -0.01853,-0.01072 -0.03869,-0.01853 -0.06237,-0.02316 v 3.863735 c 0,0.0094 0.02556,0.04632 0.04101,0.04632 h 0.03929 c 0.04615,0 0.206811,-0.11672 0.206811,-0.167608 v -0.263884 l 4.57752,0.495882 0.05542,1.071647 h 0.287458 l 0.105807,0.678287 h 0.970772 v 0.395882 c 0,0.01793 0.06691,0.05833 0.105817,0.0706 v 0.953135 z"
         sodipodi:nodetypes="ccccccccccccccscccccccccccsscsscccccccccccsccccccccccccccc" />
      <path
         id="path3"
         style="display:inline;fill:#ec8b00;fill-opacity:1;fill-rule:evenodd;stroke:none;stroke-width:0.0112964;stroke-linecap:butt;stroke-linejoin:miter;stroke-miterlimit:4;stroke-dasharray:none;stroke-opacity:1"
         d="m 16.37809,26.542992 v -0.953134 c 0.03912,-0.01235 0.105816,-0.05284 0.105816,-0.0706 v -0.39589 h 0.970789 l 0.105808,-0.678287 h 0.287466 l 0.05533,-1.071647 4.577485,-0.495882 v 0.263875 c 0,0.05087 0.16077,0.167616 0.20682,0.167616 h 0.03929 c 0.01647,0 0.04101,-0.03697 0.04101,-0.04632 V 19.39898 c -0.02368,0.0051 -0.04487,0.01278 -0.06237,0.02316 -0.12269,0.07352 -0.224758,0.221112 -0.224672,0.28171 v 0.830874 h 0.06777 v 0.278141 l -4.207863,-5.020887 c -0.05645,-0.06479 -0.100463,-0.367026 -0.09984,-0.542027 l 0.955699,0.213958 v -0.727457 l -1.355081,-1.590424 v -0.149783 l -0.242481,-0.242486 c 0,0 -0.279145,-0.922361 -0.413657,-1.554765 C 17.050981,10.566589 16.893891,9.2654563 16.757484,8.5316447 16.621205,7.7978331 16.286788,6.3064765 16.281152,6.3064765 c -0.006,0 -0.339975,1.4913566 -0.476382,2.2251682 -0.136279,0.7338116 -0.293412,2.0349443 -0.427897,2.6673453 -0.134426,0.632404 -0.413657,1.554765 -0.413657,1.554765 l -0.242498,0.242486 v 0.149783 l -1.355073,1.590424 v 0.727457 l 0.955708,-0.213958 c 4.29e-4,0.175001 -0.04341,0.477245 -0.09985,0.542027 l -4.207846,5.020887 V 20.53472 h 0.06768 v -0.830874 c 6.9e-5,-0.06065 -0.1021016,-0.208201 -0.2246544,-0.28171 -0.01853,-0.01072 -0.038689,-0.01853 -0.062366,-0.02316 V 23.2627 c 0,0.0094 0.025307,0.04632 0.041005,0.04632 h 0.03929 c 0.046152,0 0.2068114,-0.116719 0.2068114,-0.167607 v -0.263884 l 4.577503,0.49589 0.05533,1.071647 h 0.287458 l 0.105816,0.678287 h 0.970772 v 0.395882 c 0,0.01793 0.06691,0.05833 0.105808,0.0706 v 0.953135 z"
         sodipodi:nodetypes="ccccccccccccccscccccccccccsscsscccccccccccsccccccccccccccc" />
    </g>
  </g>
</svg>
