<?xml version="1.0" encoding="UTF-8" standalone="no"?>
<svg
   width="20"
   height="20"
   viewBox="0 0 20 20"
   fill="none"
   version="1.1"
   id="svg649"
   sodipodi:docname="plugin-icone.svg"
   inkscape:version="1.2.2 (732a01da63, 2022-12-09)"
   xmlns:inkscape="http://www.inkscape.org/namespaces/inkscape"
   xmlns:sodipodi="http://sodipodi.sourceforge.net/DTD/sodipodi-0.dtd"
   xmlns="http://www.w3.org/2000/svg"
   xmlns:svg="http://www.w3.org/2000/svg">
  <defs
     id="defs653" />
  <sodipodi:namedview
     id="namedview651"
     pagecolor="#ffffff"
     bordercolor="#000000"
     borderopacity="0.25"
     inkscape:showpageshadow="2"
     inkscape:pageopacity="0.0"
     inkscape:pagecheckerboard="0"
     inkscape:deskcolor="#d1d1d1"
     showgrid="false"
     inkscape:zoom="9.1592425"
     inkscape:cx="10.754164"
     inkscape:cy="16.922797"
     inkscape:window-width="1920"
     inkscape:window-height="1009"
     inkscape:window-x="-8"
     inkscape:window-y="-8"
     inkscape:window-maximized="1"
     inkscape:current-layer="svg649" />
  <circle
     style="fill:#9ba2a6;fill-opacity:1;stroke-width:31.1372"
     id="path998"
     cx="10"
     cy="10"
     r="9.75" />
  <g
     id="g1763"
     transform="matrix(0.975,0,0,0.975,0.25,0.25)"
     style="fill:#1d2327;fill-opacity:1">
    <g
       id="g1757"
       transform="translate(0.11065066,0.11067975)"
       style="fill:#1d2327;fill-opacity:1">
      <path
         d="m 6.0361308,15.197015 v 0.954194 H 5.6252975 q -1.6499594,0 -2.2131985,-0.49035 Q 2.8554863,15.17051 2.8554863,13.706087 v -1.583695 q 0,-1.000578 -0.3578225,-1.384906 Q 2.1398413,10.353158 1.1989006,10.353158 H 0.79469367 V 9.4055914 H 1.1989006 q 0.947567,0 1.2987632,-0.3777015 Q 2.8554863,8.643562 2.8554863,7.6562369 V 6.0659146 q 0,-1.4644217 0.5566127,-1.9481447 0.5632391,-0.4903493 2.2131985,-0.4903493 h 0.4108333 v 0.947567 H 5.5855394 q -0.9343143,0 -1.219247,0.291559 Q 4.0813596,5.1581058 4.0813596,6.09242 v 1.643333 q 0,1.0403358 -0.3048117,1.5108061 -0.2981854,0.4704704 -1.0270831,0.6361289 0.7355239,0.178911 1.0337095,0.649382 0.2981853,0.47047 0.2981853,1.504179 v 1.643334 q 0,0.934313 0.2849328,1.225873 0.2849327,0.291559 1.219247,0.291559 z"
         id="path1608"
         style="font-size:10.8566px;-inkscape-font-specification:'sans-serif, Normal';fill:#1d2327;stroke-width:0.159031;fill-opacity:1" />
      <path
         d="m 13.742568,15.197015 h 0.463843 q 0.927689,0 1.205995,-0.284932 0.284933,-0.284933 0.284933,-1.2325 v -1.643334 q 0,-1.033709 0.298185,-1.504179 0.298186,-0.470471 1.03371,-0.649382 Q 16.29371,9.7170295 15.995524,9.2465591 15.697339,8.7760888 15.697339,7.735753 V 6.09242 q 0,-0.9409406 -0.284933,-1.2258734 -0.278306,-0.291559 -1.205995,-0.291559 h -0.463843 v -0.947567 h 0.41746 q 1.649958,0 2.199945,0.4903493 0.556613,0.483723 0.556613,1.9481447 v 1.5903223 q 0,0.9873251 0.357823,1.371653 0.357822,0.3777015 1.298762,0.3777015 h 0.410834 v 0.9475666 h -0.410834 q -0.94094,0 -1.298762,0.384328 -0.357823,0.384328 -0.357823,1.384906 v 1.583695 q 0,1.464423 -0.556613,1.954772 -0.549987,0.49035 -2.199945,0.49035 h -0.41746 z"
         id="path1610"
         style="font-size:10.8566px;-inkscape-font-specification:'sans-serif, Normal';fill:#1d2327;stroke-width:0.159031;fill-opacity:1" />
      <path
         id="path580"
         style="display:inline;fill:#1d2327;fill-opacity:1;fill-rule:evenodd;stroke:none;stroke-width:0.00715685;stroke-linecap:butt;stroke-linejoin:miter;stroke-miterlimit:4;stroke-dasharray:none;stroke-opacity:1"
         d="m 9.9506143,16.29975 v -0.60386 c 0.024728,-0.0077 0.067095,-0.03345 0.067095,-0.04472 v -0.250809 h 0.615042 l 0.0671,-0.429731 h 0.182115 l 0.03515,-0.678942 2.900077,-0.314168 v 0.167181 c 0,0.03224 0.1018,0.106188 0.131035,0.106188 h 0.02485 c 0.0098,0 0.02599,-0.02342 0.02599,-0.02936 v -2.447885 c -0.01501,0.003 -0.02838,0.008 -0.03954,0.01468 -0.07765,0.04657 -0.142384,0.140085 -0.142331,0.178478 v 0.526401 h 0.04292 v 0.176219 l -2.66589,-3.1809945 c -0.03571,-0.041043 -0.06375,-0.2325299 -0.06325,-0.3434021 l 0.605474,0.1355532 V 8.8196971 L 10.877942,7.8120827 V 7.7171952 L 10.72431,7.5635685 c 0,0 -0.176861,-0.5843631 -0.26207,-0.9850221 C 10.37703,6.1778876 10.277542,5.3535536 10.191132,4.8886465 10.104722,4.4237396 9.8929153,3.4788905 9.8893366,3.4788905 c -0.00356,0 -0.2153848,0.9448491 -0.3017975,1.409756 C 9.5011356,5.3535536 9.4016434,6.1778876 9.316432,6.5785464 9.2312253,6.9792054 9.0543623,7.5635685 9.0543623,7.5635685 L 8.9007348,7.7171956 v 0.094887 L 8.0422293,8.8196974 v 0.4608815 l 0.605473,-0.1355533 c 4.188e-4,0.1108725 -0.027559,0.302359 -0.063253,0.3434022 L 5.9185594,12.669416 v -0.176219 h 0.042931 v -0.526401 c 3.45e-5,-0.03839 -0.06469,-0.131906 -0.1423327,-0.178477 -0.011163,-0.0067 -0.02452,-0.01162 -0.039536,-0.01468 v 2.44787 c 0,0.006 0.016144,0.02936 0.025983,0.02936 h 0.024854 c 0.029239,0 0.1310365,-0.07394 0.1310365,-0.106188 V 13.9775 l 2.9000776,0.314168 0.035141,0.678943 H 9.07883 l 0.067095,0.42973 h 0.6150443 v 0.25081 c 0,0.01125 0.042368,0.03697 0.067095,0.04472 v 0.60386 z"
         sodipodi:nodetypes="ccccccccccccccscccccccccccsscsscccccccccccsccccccccccccccc" />
    </g>
  </g>
</svg>
